<svg width="20" height="20" viewBox="0 0 20 20" fill="none" xmlns="http://www.w3.org/2000/svg">
<path fill-rule="evenodd" clip-rule="evenodd" d="M16 13.6538V8.78205C16 5.79077 14.37 3.28667 11.5 2.6241V1.96154C11.5 1.15282 10.83 0.5 10 0.5C9.17 0.5 8.5 1.15282 8.5 1.96154V2.6241C5.64 3.28667 4 5.78103 4 8.78205V13.6538L2 15.6026V16.5769H18V15.6026L16 13.6538ZM10 19.5C11.1 19.5 12 18.6231 12 17.5513H8C8 18.6231 8.9 19.5 10 19.5ZM6 14.6282H14V8.78205C14 6.36564 12.49 4.39744 10 4.39744C7.51 4.39744 6 6.36564 6 8.78205V14.6282Z" fill="#37352F"/>
</svg>
